<?xml version="1.0" encoding="utf-8"?>
<!-- Generator: Adobe Illustrator 21.1.0, SVG Export Plug-In . SVG Version: 6.00 Build 0)  -->
<svg version="1.1" id="Layer_1" xmlns="http://www.w3.org/2000/svg" xmlns:xlink="http://www.w3.org/1999/xlink" x="0px" y="0px"
	 viewBox="0 0 149.7 64.3" style="enable-background:new 0 0 149.7 64.3;" xml:space="preserve">
<style type="text/css">
	.st0{font-family:'Avenir-Heavy';}
	.st1{font-size:80px;}
	.st2{fill:#FFFFFF;}
	.st3{fill:#050505;}
</style>
<g>
	<path d="M145.3,19.8c1.5,3.7,2.2,7.8,2.1,12.3c0,4.4-0.7,8.5-2.3,12.1c-1.5,3.6-3.6,6.8-6.2,9.4c-2.7,2.6-5.8,4.7-9.5,6.1
		c-3.7,1.5-7.7,2.2-12.2,2.2c-4.4,0-8.4-0.7-12-2.2c-3.7-1.4-6.8-3.4-9.4-6s-4.7-5.7-6.2-9.3s-2.2-7.6-2.1-12.1
		c0-4.5,0.8-8.7,2.3-12.4s3.6-6.9,6.2-9.5s5.8-4.6,9.4-6c3.7-1.4,7.7-2.1,12-2c4.4-0.1,8.5,0.6,12.2,2.1c3.7,1.4,6.9,3.4,9.5,6
		C141.8,13,143.8,16.2,145.3,19.8z M136.9,31.7c0-2.8-0.5-5.5-1.4-7.9s-2.2-4.6-4-6.4c-1.7-1.8-3.8-3.3-6.2-4.3s-5.1-1.6-8-1.6
		s-5.6,0.5-8,1.6c-2.4,1-4.4,2.5-6.1,4.3c-1.7,1.8-3,4-4,6.4c-0.9,2.5-1.4,5.1-1.4,7.9c0,3,0.5,5.8,1.4,8.4s2.3,4.8,4,6.6
		c1.7,1.9,3.8,3.3,6.1,4.4c2.4,1.1,5,1.6,8,1.6c2.9,0,5.6-0.5,8-1.6s4.5-2.5,6.2-4.4s3-4.1,4-6.6C136.4,37.6,136.9,34.8,136.9,31.7z
		"/>
	<path d="M136.2,23.4c0.9,2.6,1.4,5.3,1.4,8.1c0,3.1-0.5,6-1.5,8.6c-0.9,2.7-2.3,4.9-4.2,6.8c-1.8,1.9-3.9,3.4-6.4,4.5
		s-5.3,1.6-8.2,1.6c-3,0-5.8-0.5-8.2-1.7c-2.5-1.1-4.5-2.6-6.3-4.6c-1.7-2-3.1-4.2-4.1-6.8c-0.9-2.7-1.4-5.6-1.4-8.7
		c0-2.9,0.5-5.7,1.5-8.1s2.4-4.7,4.2-6.6c1.8-1.8,3.9-3.4,6.3-4.4c2.5-1,5.2-1.6,8.2-1.6s5.8,0.5,8.2,1.7c2.5,1,4.6,2.6,6.4,4.5
		C134,18.7,135.3,21,136.2,23.4z"/>
</g>
<text transform="matrix(1 0 0 1 -3.422 61.2299)" class="st0 st1">E</text>
<g>
	<text transform="matrix(1 0 0 1 37.4741 60.0633)" class="st0 st1">C</text>
</g>
<g>
	<path class="st2" d="M95.2,22.7c0.6-0.3,3.7-1.6,4.6-1.2C99.2,22.2,96,22.6,95.2,22.7c0.7,1.1,1.6,2.1,2.5,2.8c0,0,4.7-2,5.9-1.6
		c-0.8,1-5.9,1.6-5.9,1.6c2.3,1.9,5.2,2.4,8.6-1C103.1,24,92,16,92,16S93.1,19.6,95.2,22.7z"/>
	<path class="st2" d="M103.1,16.4c0,0,1.9,4.8,1.4,6C103.5,21.5,103.1,16.4,103.1,16.4c-1.1-0.4-2.4-0.7-3.7-0.8
		c0.2,0.6,1.4,3.8,1.1,4.7c-0.7-0.6-1.1-4.1-1.1-4.7c-3.7-0.4-7.4,0.3-7.4,0.3s12.4,5.9,14.3,8.5C107.7,19.9,105.8,17.6,103.1,16.4z
		"/>
	<path class="st2" d="M103.1,16.4L103.1,16.4L103.1,16.4z"/>
	<path class="st2" d="M97.7,25.5L97.7,25.5L97.7,25.5z"/>
	<path class="st2" d="M99.4,15.5C99.4,15.5,99.4,15.6,99.4,15.5C99.4,15.6,99.4,15.6,99.4,15.5C99.4,15.6,99.4,15.5,99.4,15.5z"/>
	<path class="st2" d="M95.1,22.7c0,0,0.1,0,0.2,0l0,0C95.1,22.7,95.1,22.7,95.1,22.7z"/>
</g>
<g>
	<path class="st2" d="M139.5,22.8c2.1-3.1,3.3-6.7,3.3-6.7s-11.1,8.1-14.3,8.5c3.4,3.4,6.3,2.9,8.6,1c0,0-5.1-0.6-5.9-1.6
		c1.2-0.4,5.9,1.6,5.9,1.6C137.9,24.9,138.8,23.9,139.5,22.8c-0.8-0.1-4-0.5-4.6-1.2C135.8,21.3,138.9,22.5,139.5,22.8z"/>
	<path class="st2" d="M142.8,16.1c0,0-3.7-0.7-7.4-0.3c-0.1,0.6-0.4,4-1.1,4.7c-0.3-0.9,0.9-4.1,1.1-4.7c-1.3,0.1-2.5,0.4-3.7,0.8
		c0,0-0.5,5.1-1.4,6c-0.5-1.2,1.4-6,1.4-6c-2.8,1.1-4.6,3.4-3.2,8C130.3,22,142.8,16.1,142.8,16.1z"/>
	<path class="st2" d="M131.6,16.6L131.6,16.6L131.6,16.6z"/>
	<path class="st2" d="M137,25.6L137,25.6L137,25.6z"/>
	<path class="st2" d="M135.3,15.7L135.3,15.7C135.3,15.8,135.3,15.8,135.3,15.7L135.3,15.7z"/>
	<path class="st2" d="M139.5,22.8L139.5,22.8c0.1,0,0.1,0.1,0.1,0.1S139.6,22.9,139.5,22.8z"/>
</g>
<path class="st2" d="M128.3,40.7c-0.6,0-1.1,0.1-1.6,0.3l-9.4,1.8l-9.4-1.8c-0.5-0.2-1-0.3-1.6-0.3c-2.5,0-4.5,2-4.5,4.5v2.9
	c0,2.5,2,4.5,4.5,4.5c0.4,0,0.7-0.1,1-0.1l9.9-1.3l9.9,1.3c0.3,0.1,0.7,0.1,1,0.1c2.5,0,4.5-2,4.5-4.5v-2.9
	C132.8,42.7,130.7,40.7,128.3,40.7z M131.7,48.1c0,1.9-1.6,3.5-3.5,3.5c-0.2,0-0.5,0-0.8-0.1h-0.1l-10-1.3l-10.1,1.3l0,0
	c-0.3,0.1-0.6,0.1-0.8,0.1c-1.9,0-3.5-1.6-3.5-3.5v-2.9c0-1.9,1.6-3.5,3.5-3.5c0.4,0,0.8,0.1,1.2,0.2h0.1l9.6,1.8l9.6-1.8h0.1
	c0.4-0.2,0.8-0.2,1.2-0.2c1.9,0,3.5,1.6,3.5,3.5L131.7,48.1L131.7,48.1z"/>
<polygon class="st2" points="105.4,41.3 106.6,43.7 107.8,41.3 "/>
<polygon class="st2" points="126.8,41.6 128,44 129.1,41.6 "/>
<polygon class="st2" points="125.5,51.6 124.4,49.2 123.2,51.6 "/>
<polygon class="st2" points="111.4,51.6 110.3,49.2 109.1,51.6 "/>
<g>
	<path class="st2" d="M123.7,33.6c-1.8-0.9-4.7-1.6-6.4-1.6s-4.5,0.7-6.4,1.6s-3.3,2.8-3.3,4.1s1.9,2.5,4.2,2.5h0.3
		c2.3,0,4.7,0,5.3,0s1.1,0,1.2,0s1.9,0,4.2,0h0.2c2.3,0,4.2-1.1,4.2-2.5S125.6,34.5,123.7,33.6z M111.8,39.4c0-0.9,0.8-1.7,1.7-1.7
		c0.9,0,1.7,0.8,1.7,1.7C115.1,40.3,111.8,40.3,111.8,39.4z M119.2,39.4c0-0.9,0.8-1.7,1.7-1.7s1.7,0.8,1.7,1.7
		C122.6,40.3,119.2,40.3,119.2,39.4z"/>
</g>
<path class="st2" d="M108.4,25.3c-2.3,0-4.1,1.8-4.1,4.1s1.8,4.1,4.1,4.1s4.1-1.8,4.1-4.1C112.6,27.2,110.7,25.3,108.4,25.3z
	 M108.4,31c-0.9,0-1.6-0.7-1.6-1.6s0.7-1.6,1.6-1.6s1.6,0.7,1.6,1.6S109.3,31,108.4,31z"/>
<path class="st2" d="M126.3,25.3c-2.3,0-4.1,1.8-4.1,4.1s1.8,4.1,4.1,4.1c2.3,0,4.1-1.8,4.1-4.1C130.4,27.2,128.6,25.3,126.3,25.3z
	 M126.3,31c-0.9,0-1.6-0.7-1.6-1.6s0.7-1.6,1.6-1.6s1.6,0.7,1.6,1.6S127.2,31,126.3,31z"/>
<path class="st3" d="M109.4,26.6c-0.8,0-1.4-0.6-1.4-1.4v-0.5c0-0.8,0.6-1.4,1.4-1.4h5.3c0.8,0,1.4,0.6,1.4,1.4v0.5
	c0,0.8-0.6,1.4-1.4,1.4H109.4z"/>
<path class="st2" d="M114.7,26.1h-5.3c-0.5,0-0.9-0.4-0.9-0.9v-0.5c0-0.5,0.4-0.9,0.9-0.9h5.3c0.5,0,0.9,0.4,0.9,0.9v0.5
	C115.7,25.7,115.2,26.1,114.7,26.1z"/>
<path class="st3" d="M120,26.6c-0.8,0-1.4-0.6-1.4-1.4v-0.5c0-0.8,0.6-1.4,1.4-1.4h5.3c0.8,0,1.4,0.6,1.4,1.4v0.5
	c0,0.8-0.6,1.4-1.4,1.4H120z"/>
<path class="st2" d="M125.4,26.1h-5.3c-0.5,0-0.9-0.4-0.9-0.9v-0.5c0-0.5,0.4-0.9,0.9-0.9h5.3c0.5,0,0.9,0.4,0.9,0.9v0.5
	C126.3,25.7,125.9,26.1,125.4,26.1z"/>
</svg>
